<svg xmlns="http://www.w3.org/2000/svg" viewBox="0 0 259.68 47.5"><defs><style>.cls-1,.cls-2{fill:#fff;}.cls-1{fill-rule:evenodd;}</style></defs><title>fcsa_logo_hor</title><g id="Layer_2" data-name="Layer 2"><g id="Layer_1-2" data-name="Layer 1"><path class="cls-1" d="M41,17.13s6.46,6.31,6.54,6.62S41,30.37,41,30.37c-1.8,1.59-5.11,4.52-9.8.08-1.26-1.19-2.39-2.6-5.66-5.78l14.41-.92L25.5,22.83c3.27-3.19,4.4-4.6,5.66-5.78,4.69-4.44,8-1.51,9.8.08M6.54,30.37S.08,24.06,0,23.75c.08-.31,6.54-6.62,6.54-6.62,1.8-1.59,5.11-4.52,9.8-.08,1.26,1.19,2.39,2.6,5.66,5.78l-14.41.92L22,24.67c-3.27,3.19-4.4,4.6-5.66,5.78-4.69,4.44-8,1.51-9.8-.08m17.72,3,.17-3.16,7.89,8a9.51,9.51,0,0,1-1.47,2.21Zm.25-4.69.17-3.19c3.18,3.27,4.6,4.4,5.78,5.66,2.32,2.45,2.63,4.53,2.17,6.21Zm3.31,14.87c-1.79,1.8-3.88,3.89-4.06,3.94s-2.27-2.13-4.06-3.94l3.88-3.93.18,3.52.18-3.52ZM19,42.87l-1.76-1.79,6.07-6.15.16,3.15Zm-2.34-2.45a9.51,9.51,0,0,1-1.47-2.21l7.89-8,.16,3.16Zm-1.78-3.06c-.46-1.68-.16-3.75,2.16-6.21,1.19-1.26,2.6-2.39,5.78-5.66L23,28.69Zm15.37,3.72L28.5,42.87,24,38.08l.16-3.15ZM17.13,6.54S23.44.07,23.75,0s6.62,6.54,6.62,6.54c1.59,1.8,4.52,5.11.08,9.8-1.19,1.26-2.6,2.39-5.78,5.66L23.75,7.58,22.83,22c-3.18-3.27-4.6-4.4-5.78-5.66-4.44-4.69-1.51-8,.08-9.8"/><path class="cls-2" d="M33.5,44.06A1.55,1.55,0,0,1,35,45.61a1.52,1.52,0,0,1-.45,1.1,1.55,1.55,0,0,1-2.19,0,1.52,1.52,0,0,1-.45-1.1,1.55,1.55,0,0,1,1.55-1.55m1.8,1.55a1.8,1.8,0,1,0-3.6,0,1.75,1.75,0,0,0,.52,1.28,1.79,1.79,0,0,0,2.55,0,1.75,1.75,0,0,0,.53-1.28M34,45.22a.31.31,0,0,1-.21.31,1,1,0,0,1-.33,0h-.32v-.72h.3a.91.91,0,0,1,.42.07.3.3,0,0,1,.13.29m-1.2-.6v2h.35v-.78h.27a.84.84,0,0,1,.39.06.48.48,0,0,1,.19.45v.26h.32v0a.3.3,0,0,1,0-.1c0-.05,0-.1,0-.15v-.14a.55.55,0,0,0-.11-.31.47.47,0,0,0-.34-.19.75.75,0,0,0,.28-.1.43.43,0,0,0,.19-.39.49.49,0,0,0-.31-.5,1.53,1.53,0,0,0-.54-.07Z"/><polygon class="cls-1" points="53.35 29.6 53.35 23.98 56.85 23.98 56.85 21.31 53.35 21.31 53.35 18.95 57.16 18.95 57.16 16.29 50.54 16.29 50.54 29.6 53.35 29.6"/><path class="cls-1" d="M62.56,26.34c0,.64-.18,1.51-.93,1.51a.94.94,0,0,1-.94-1.07,1.48,1.48,0,0,1,.59-1.28,11.29,11.29,0,0,1,1.28-.73Zm.27,3.27h2.48a3.71,3.71,0,0,1-.21-1.1V22.42c0-2.18-.91-3-3.42-3-2,0-3.55.94-3.43,3.43h2.54c0-.83,0-1.54,1-1.54.51,0,.8.48.8,1,0,1.07-1.1,1.19-2.2,1.6a3.09,3.09,0,0,0-2.22,3.37,2.36,2.36,0,0,0,2.33,2.66,2.58,2.58,0,0,0,2.19-1.21Z"/><path class="cls-1" d="M66.41,19.66V29.6H69V23.48c0-.82.34-1,1.05-1a3.69,3.69,0,0,1,.77.07v-3.2c-1.05,0-1.68.73-2,1.79h0V19.66Z"/><path class="cls-1" d="M71.66,19.66V29.6H74.2V22.5c0-.53.24-.82.75-.82s.53.39.61.82v7.1H78.1V22.5c0-.51.24-.8.69-.82s.64.35.67.82v7.1H82V21.46a2.09,2.09,0,0,0-2.27-2.08,2.12,2.12,0,0,0-1.85,1.31h0A1.9,1.9,0,0,0,76,19.38a2.38,2.38,0,0,0-1.9,1.44h0V19.66Z"/><path class="cls-1" d="M94.81,20.94V19.82C94.81,17.11,93.37,16,91,16c-2.57,0-3.77,1.35-3.77,4.24v5.47c0,2.72,1,4.24,3.6,4.24,2.88,0,4.06-1.6,4.06-3.89V24.4H92v1.21c0,.82-.08,1.92-1,1.92-.74,0-1-.44-1-1.19l0-6.59c0-.87.21-1.4,1.09-1.39.53,0,.9.59.9,1.72v.85Z"/><path class="cls-1" d="M96.13,19.66V29.6h2.54V23.48c0-.82.34-1,1.05-1a3.7,3.7,0,0,1,.77.07v-3.2c-1.06,0-1.68.73-2,1.79h0V19.66Z"/><path class="cls-1" d="M103.93,23.23v-.66c0-.69.18-1.33.89-1.33s.86.66.86,1v1Zm4.3,1.86V22.26c0-2.15-1.65-2.89-3.42-2.88-2,0-3.42.85-3.42,3.41v4c0,2.27,1.6,3.11,3.42,3.09,2.21,0,3.45-1.21,3.32-3.76H105.6c0,.83,0,1.77-.9,1.72-.56,0-.78-.5-.78-1V25.1Z"/><path class="cls-1" d="M112,23.44c0-.64,0-1.76.78-1.76.62,0,.74,1,.74,1.86v2.34c0,1-.1,1.72-.78,1.72s-.74-1-.74-1.6ZM116,29.6V16.29h-2.54v4.28h0a2.12,2.12,0,0,0-1.85-1.19c-1.68,0-2.17,1.85-2.17,3.41v3.44c0,1.69.37,3.62,2.22,3.69a2.32,2.32,0,0,0,2-1.47h0V29.6Z"/><path class="cls-1" d="M120.26,19.66h-2.54V29.6h2.54Zm0-3.37h-2.54v2.4h2.54Z"/><path class="cls-1" d="M122.39,21.7v5.75c0,1.51.75,2.29,2.13,2.29a10,10,0,0,0,1.63-.16v-2a2.76,2.76,0,0,0-.65,0c-.34,0-.56-.12-.56-.69V21.7h1.21v-2h-1.21V16.82h-2.54v2.84h-1v2Z"/><path class="cls-1" d="M130.76,25.15v1.42c0,1.76,1.09,3.36,3.66,3.36,2.33,0,3.61-1.42,3.61-4a4.15,4.15,0,0,0-1-3.18,19.54,19.54,0,0,0-2.62-1.88,1.67,1.67,0,0,1-.85-1.63c.06-.58.4-.94,1-.89.93.07.9,1.14.93,1.92H138c.13-2.5-1.12-4.31-3.56-4.31-2.17,0-3.53,1.28-3.53,3.78a4.16,4.16,0,0,0,.82,2.66,8.17,8.17,0,0,0,2.12,1.74c.74.5,1.57.92,1.57,2,0,.67-.29,1.33-.94,1.33-.9,0-1.12-.68-1.12-1.44v-.94Z"/><path class="cls-1" d="M141.64,23.23v-.66c0-.69.18-1.33.89-1.33s.86.66.86,1v1Zm4.3,1.86V22.26c0-2.15-1.65-2.89-3.42-2.88-2,0-3.42.85-3.42,3.41v4c0,2.27,1.6,3.11,3.42,3.09,2.2,0,3.45-1.21,3.32-3.76h-2.52c0,.83,0,1.77-.89,1.72-.56,0-.78-.5-.78-1V25.1Z"/><path class="cls-1" d="M147.16,19.66V29.6h2.54V23.48c0-.82.34-1,1.05-1a3.7,3.7,0,0,1,.77.07v-3.2c-1.06,0-1.68.73-2,1.79h0V19.66Z"/><polygon class="cls-1" points="154.79 19.66 152.23 19.66 154.18 29.6 157.09 29.6 159.06 19.66 156.58 19.66 155.67 26.09 155.64 26.09 154.79 19.66"/><path class="cls-1" d="M162.68,19.66h-2.54V29.6h2.54Zm0-3.37h-2.54v2.4h2.54Z"/><path class="cls-1" d="M170.9,23.36c.14-2.73-.85-3.94-3.36-4-2,0-3.15.85-3.15,3.41v4c0,2.27,1.33,3.09,3.15,3.09.38,0,.61,0,.85-.05a2.59,2.59,0,0,0,2.4-1.94,12.68,12.68,0,0,0,.21-2.36h-2.46c0,.74.16,2.31-.78,2.31-.65,0-.82-.53-.82-1.15v-4.1c0-.64.11-1.21.77-1.21.38,0,.58.21.69.62s0,.76.1,1.14l0,.18Z"/><path class="cls-1" d="M174.75,23.23v-.66c0-.69.18-1.33.89-1.33s.86.66.86,1v1Zm4.3,1.86V22.26c0-2.15-1.65-2.89-3.42-2.88-2,0-3.42.85-3.42,3.41v4c0,2.27,1.6,3.11,3.42,3.09,2.2,0,3.45-1.21,3.32-3.76h-2.52c0,.83,0,1.77-.89,1.72-.56,0-.78-.5-.78-1V25.1Z"/><path class="cls-1" d="M186.35,22.61c.1-2.2-1.39-3.23-3.24-3.23s-3.31.92-3.31,3.07a2.87,2.87,0,0,0,.64,1.86c.8,1,2.22,1.44,3.24,2a1,1,0,0,1,.34.76.84.84,0,0,1-.91.94c-.77,0-.94-.8-.91-1.49h-2.43c-.1,2.4,1.31,3.35,3.32,3.35s3.39-.94,3.39-3.16-1.77-2.84-3.42-3.68c-.38-.21-.78-.48-.78-1a.76.76,0,0,1,.85-.83c.81,0,.78.69.85,1.37Z"/><path class="cls-1" d="M193,29.1c2.6,0,4.17-2.31,4.17-5a2.26,2.26,0,0,0-2.54-2.52c-2.6,0-4.17,2.31-4.17,5A2.26,2.26,0,0,0,193,29.1m.52-.61c-.92,0-1-1.65-1-2.32,0-1,.19-3.94,1.54-3.94.91,0,1,1.65,1,2.34,0,1-.19,3.92-1.54,3.92"/><path class="cls-1" d="M201,21.92c.09-1.11.25-3.58,1.18-4,.26.48.51.86,1,.86a.58.58,0,0,0,.65-.6c0-.6-.83-.82-1.25-.82-.79,0-3,.37-3.5,3.71l-.13.89h-.9l-.07.57h.9c-.22,2.61-.54,6.5-.67,7.23-.29,1.61-.39,2-1.12,2.44a1.34,1.34,0,0,0-1.09-.81.58.58,0,0,0-.57.6,1,1,0,0,0,1,.87A4.45,4.45,0,0,0,200.36,29c.23-1.36.33-2.91.61-6.5h1.15l.07-.57Z"/><path class="cls-1" d="M209,29.6l.34-2.59h2.2l.4,2.59h2.85l-2.61-13.31h-3.39L206.13,29.6Zm2.27-4.94H209.6l.81-6h0Z"/><path class="cls-1" d="M215.47,19.66V29.6H218V22.5c0-.53.24-.82.75-.82s.53.39.61.82v7.1h2.54V22.5c0-.51.24-.8.69-.82s.64.35.67.82v7.1h2.54V21.46a2.09,2.09,0,0,0-2.27-2.08,2.12,2.12,0,0,0-1.85,1.31h0a1.9,1.9,0,0,0-1.89-1.31,2.38,2.38,0,0,0-1.9,1.44h0V19.66Z"/><path class="cls-1" d="M229.54,23.23v-.66c0-.69.18-1.33.89-1.33s.86.66.86,1v1Zm4.3,1.86V22.26c0-2.15-1.65-2.89-3.42-2.88-2,0-3.42.85-3.42,3.41v4c0,2.27,1.6,3.11,3.42,3.09,2.2,0,3.45-1.21,3.32-3.76h-2.52c0,.83,0,1.77-.9,1.72-.56,0-.78-.5-.78-1V25.1Z"/><path class="cls-1" d="M235.06,19.66V29.6h2.54V23.48c0-.82.34-1,1.05-1a3.69,3.69,0,0,1,.77.07v-3.2c-1.06,0-1.68.73-2,1.79h0V19.66Z"/><path class="cls-1" d="M243.2,19.66h-2.54V29.6h2.54Zm0-3.37h-2.54v2.4h2.54Z"/><path class="cls-1" d="M251.42,23.36c.14-2.73-.85-3.94-3.36-4-2,0-3.15.85-3.15,3.41v4c0,2.27,1.33,3.09,3.15,3.09.38,0,.61,0,.85-.05a2.59,2.59,0,0,0,2.4-1.94,12.67,12.67,0,0,0,.21-2.36h-2.46c0,.74.16,2.31-.78,2.31-.65,0-.82-.53-.82-1.15v-4.1c0-.64.11-1.21.77-1.21.38,0,.57.21.69.62s0,.76.1,1.14l0,.18Z"/><path class="cls-1" d="M256.94,26.34c0,.64-.18,1.51-.93,1.51a.94.94,0,0,1-.94-1.07,1.48,1.48,0,0,1,.59-1.28,11.12,11.12,0,0,1,1.28-.73Zm.27,3.27h2.48a3.74,3.74,0,0,1-.21-1.1V22.42c0-2.18-.91-3-3.42-3-2,0-3.55.94-3.43,3.43h2.54c0-.83,0-1.54,1-1.54.51,0,.8.48.8,1,0,1.07-1.1,1.19-2.2,1.6a3.09,3.09,0,0,0-2.22,3.37,2.36,2.36,0,0,0,2.33,2.66A2.58,2.58,0,0,0,257,28.72Z"/></g></g></svg>